<svg width="724" height="248" viewBox="0 0 724 248" fill="none" xmlns="http://www.w3.org/2000/svg">
<path d="M488 124C488 191.908 431.589 247 361.95 247C292.311 247 235.9 191.908 235.9 124C235.9 56.0917 292.311 1 361.95 1C431.589 1 488 56.0917 488 124Z" fill="#6BBDA0" stroke="black" stroke-width="2"/>
<path d="M26.2211 178H1.83469L44.3006 70.3636H73.6799L105.424 178H81.0378L58.2282 94.9602H57.3873L26.2211 178ZM26.7992 135.692H84.4015L83.508 153.456H25.9057L26.7992 135.692ZM150.57 179.577C142.302 179.577 135.276 177.825 129.495 174.321C123.749 170.782 119.439 165.877 116.566 159.605C113.728 153.333 112.519 146.116 112.94 137.952C113.325 129.683 115.27 122.43 118.774 116.193C122.312 109.921 127.13 105.034 133.227 101.53C139.358 97.991 146.506 96.2216 154.67 96.2216C161.677 96.2216 167.774 97.5005 172.96 100.058C178.145 102.616 182.157 106.207 184.995 110.832C187.833 115.457 189.235 120.888 189.2 127.125H168.124C167.704 123.131 166.285 119.89 163.867 117.402C161.485 114.914 158.244 113.67 154.144 113.67C150.676 113.67 147.592 114.616 144.894 116.509C142.231 118.366 140.094 121.081 138.482 124.655C136.871 128.229 135.942 132.556 135.697 137.636C135.452 142.787 135.942 147.167 137.169 150.776C138.395 154.384 140.252 157.135 142.74 159.027C145.262 160.919 148.258 161.865 151.727 161.865C154.285 161.865 156.615 161.339 158.717 160.288C160.819 159.237 162.588 157.713 164.025 155.716C165.497 153.684 166.513 151.249 167.073 148.411H188.201C187.535 154.577 185.591 160.008 182.367 164.703C179.144 169.363 174.834 173.007 169.438 175.635C164.043 178.263 157.753 179.577 150.57 179.577ZM223.979 179.524C218.864 179.524 214.326 178.631 210.367 176.844C206.443 175.022 203.394 172.341 201.222 168.803C199.085 165.229 198.156 160.779 198.437 155.453C198.647 150.968 199.645 147.219 201.432 144.206C203.219 141.158 205.567 138.705 208.475 136.848C211.418 134.956 214.729 133.537 218.408 132.591C222.087 131.61 225.941 130.944 229.971 130.594C234.666 130.103 238.45 129.648 241.323 129.227C244.231 128.772 246.351 128.106 247.682 127.23C249.049 126.354 249.785 125.058 249.89 123.341V123.026C250.065 119.697 249.154 117.122 247.157 115.3C245.16 113.478 242.269 112.567 238.485 112.567C234.456 112.567 231.18 113.46 228.657 115.247C226.169 116.999 224.487 119.206 223.611 121.869L203.009 120.188C204.27 115.282 206.53 111.043 209.789 107.469C213.047 103.86 217.164 101.092 222.14 99.1648C227.15 97.2026 232.879 96.2216 239.326 96.2216C243.846 96.2216 248.12 96.7472 252.15 97.7983C256.214 98.8494 259.788 100.479 262.871 102.686C265.99 104.893 268.39 107.732 270.072 111.2C271.753 114.634 272.472 118.751 272.226 123.551L269.493 178H248.26L248.839 166.805H248.208C246.806 169.328 244.967 171.553 242.689 173.48C240.447 175.372 237.767 176.861 234.648 177.947C231.53 178.999 227.974 179.524 223.979 179.524ZM231.18 164.072C234.473 164.072 237.416 163.424 240.009 162.128C242.602 160.796 244.669 159.009 246.211 156.767C247.752 154.525 248.593 151.984 248.733 149.146L249.154 140.58C248.453 141.035 247.472 141.455 246.211 141.841C244.984 142.191 243.618 142.507 242.111 142.787C240.605 143.067 239.098 143.33 237.591 143.575C236.085 143.821 234.718 144.031 233.492 144.206C230.829 144.591 228.482 145.205 226.449 146.045C224.452 146.886 222.858 148.025 221.667 149.462C220.51 150.863 219.897 152.615 219.827 154.717C219.687 157.766 220.686 160.096 222.823 161.707C224.96 163.284 227.746 164.072 231.18 164.072ZM316.611 179.314C310.479 179.314 305.013 177.737 300.213 174.584C295.413 171.395 291.716 166.718 289.123 160.551C286.531 154.349 285.462 146.746 285.917 137.741C286.373 128.491 288.247 120.801 291.541 114.669C294.835 108.502 299.039 103.895 304.155 100.847C309.27 97.7633 314.771 96.2216 320.657 96.2216C325.177 96.2216 328.909 96.9924 331.852 98.5341C334.83 100.041 337.195 101.933 338.947 104.21C340.699 106.453 342.013 108.66 342.889 110.832H343.572L345.622 70.3636H367.959L362.598 178H340.524L341.207 165.071H340.209C339.052 167.313 337.458 169.538 335.426 171.746C333.394 173.918 330.836 175.723 327.753 177.159C324.669 178.596 320.955 179.314 316.611 179.314ZM324.547 161.497C328.121 161.497 331.221 160.516 333.849 158.554C336.477 156.557 338.544 153.771 340.051 150.197C341.593 146.624 342.486 142.437 342.731 137.636C342.977 132.836 342.521 128.667 341.365 125.128C340.209 121.589 338.404 118.856 335.952 116.929C333.534 115.002 330.521 114.038 326.912 114.038C323.198 114.038 320.027 115.037 317.399 117.034C314.806 119.031 312.774 121.799 311.302 125.338C309.866 128.877 309.025 132.976 308.78 137.636C308.569 142.331 309.007 146.483 310.094 150.092C311.215 153.666 312.984 156.469 315.402 158.501C317.819 160.499 320.868 161.497 324.547 161.497ZM417.691 179.577C409.422 179.577 402.379 177.895 396.563 174.531C390.746 171.133 386.384 166.332 383.476 160.131C380.568 153.894 379.324 146.518 379.744 138.004C380.165 129.7 382.145 122.412 385.683 116.141C389.222 109.869 394.005 104.981 400.031 101.477C406.093 97.9735 413.066 96.2216 420.949 96.2216C426.31 96.2216 431.25 97.08 435.77 98.7969C440.29 100.479 444.179 103.036 447.438 106.47C450.731 109.869 453.201 114.126 454.848 119.241C456.53 124.357 457.213 130.348 456.898 137.216L456.583 143.365H388.416L389.1 129.49H436.191C436.331 126.267 435.753 123.411 434.456 120.923C433.195 118.436 431.373 116.491 428.99 115.089C426.608 113.653 423.787 112.935 420.529 112.935C417.2 112.935 414.187 113.723 411.489 115.3C408.791 116.876 406.636 118.979 405.024 121.607C403.413 124.199 402.502 127.072 402.291 130.226L401.556 143.575C401.345 147.64 401.906 151.126 403.237 154.034C404.604 156.907 406.619 159.097 409.281 160.604C411.944 162.11 415.15 162.864 418.899 162.864C421.387 162.864 423.682 162.513 425.784 161.812C427.887 161.112 429.709 160.061 431.25 158.659C432.827 157.258 434.036 155.541 434.877 153.509L455.531 154.875C454.2 159.85 451.817 164.195 448.384 167.909C444.985 171.588 440.693 174.461 435.507 176.528C430.322 178.561 424.383 179.577 417.691 179.577ZM469.512 178L473.558 97.2727H494.844L494.161 111.516H495.054C496.981 106.786 499.977 103.054 504.041 100.321C508.141 97.5881 512.923 96.2216 518.389 96.2216C523.89 96.2216 528.515 97.6056 532.264 100.374C536.013 103.107 538.431 106.821 539.517 111.516H540.358C542.215 106.891 545.369 103.194 549.818 100.426C554.303 97.6231 559.506 96.2216 565.428 96.2216C572.926 96.2216 578.917 98.6217 583.402 103.422C587.922 108.187 589.954 114.949 589.499 123.709L586.818 178H564.429L566.952 128.124C567.162 123.604 566.128 120.24 563.851 118.033C561.609 115.79 558.7 114.669 555.127 114.669C551.062 114.669 547.821 115.965 545.404 118.558C542.986 121.116 541.69 124.497 541.514 128.702L538.992 178H517.286L519.861 127.651C520.036 123.656 519.038 120.503 516.865 118.19C514.728 115.843 511.82 114.669 508.141 114.669C505.653 114.669 503.393 115.3 501.361 116.561C499.329 117.787 497.682 119.522 496.421 121.764C495.159 123.972 494.459 126.564 494.318 129.543L491.848 178H469.512ZM604.451 178L608.498 97.2727H630.835L626.84 178H604.451ZM620.376 86.8139C617.047 86.8139 614.227 85.7102 611.914 83.5028C609.637 81.2604 608.551 78.5975 608.656 75.5142C608.761 72.3958 610.04 69.7329 612.492 67.5256C614.945 65.3182 617.836 64.2145 621.164 64.2145C624.493 64.2145 627.296 65.3182 629.573 67.5256C631.886 69.7329 632.99 72.3958 632.884 75.5142C632.779 78.6326 631.5 81.2955 629.048 83.5028C626.63 85.7102 623.74 86.8139 620.376 86.8139ZM667.69 179.524C662.575 179.524 658.037 178.631 654.078 176.844C650.154 175.022 647.105 172.341 644.933 168.803C642.796 165.229 641.867 160.779 642.148 155.453C642.358 150.968 643.356 147.219 645.143 144.206C646.93 141.158 649.278 138.705 652.186 136.848C655.129 134.956 658.44 133.537 662.119 132.591C665.798 131.61 669.652 130.944 673.682 130.594C678.377 130.103 682.161 129.648 685.034 129.227C687.942 128.772 690.062 128.106 691.393 127.23C692.76 126.354 693.496 125.058 693.601 123.341V123.026C693.776 119.697 692.865 117.122 690.868 115.3C688.871 113.478 685.98 112.567 682.196 112.567C678.166 112.567 674.89 113.46 672.368 115.247C669.88 116.999 668.198 119.206 667.322 121.869L646.72 120.188C647.981 115.282 650.241 111.043 653.5 107.469C656.758 103.86 660.875 101.092 665.851 99.1648C670.861 97.2026 676.59 96.2216 683.037 96.2216C687.557 96.2216 691.831 96.7472 695.861 97.7983C699.925 98.8494 703.499 100.479 706.582 102.686C709.701 104.893 712.101 107.732 713.782 111.2C715.464 114.634 716.183 118.751 715.937 123.551L713.204 178H691.971L692.55 166.805H691.919C690.517 169.328 688.678 171.553 686.4 173.48C684.158 175.372 681.478 176.861 678.359 177.947C675.241 178.999 671.684 179.524 667.69 179.524ZM674.89 164.072C678.184 164.072 681.127 163.424 683.72 162.128C686.313 160.796 688.38 159.009 689.922 156.767C691.463 154.525 692.304 151.984 692.444 149.146L692.865 140.58C692.164 141.035 691.183 141.455 689.922 141.841C688.695 142.191 687.329 142.507 685.822 142.787C684.316 143.067 682.809 143.33 681.302 143.575C679.796 143.821 678.429 144.031 677.203 144.206C674.54 144.591 672.193 145.205 670.16 146.045C668.163 146.886 666.569 148.025 665.378 149.462C664.221 150.863 663.608 152.615 663.538 154.717C663.398 157.766 664.397 160.096 666.534 161.707C668.671 163.284 671.457 164.072 674.89 164.072Z" fill="white"/>
<path d="M26.2211 178V180H27.6066L28.0935 178.703L26.2211 178ZM1.83469 178L-0.0257464 177.266L-1.1044 180H1.83469V178ZM44.3006 70.3636V68.3636H42.9396L42.4402 69.6296L44.3006 70.3636ZM73.6799 70.3636L75.5982 69.7979L75.1752 68.3636H73.6799V70.3636ZM105.424 178V180H108.099L107.343 177.434L105.424 178ZM81.0378 178L79.1093 178.53L79.5131 180H81.0378V178ZM58.2282 94.9602L60.1567 94.4305L59.7529 92.9602H58.2282V94.9602ZM57.3873 94.9602V92.9602H56.0017L55.5148 94.2575L57.3873 94.9602ZM26.7992 135.692V133.692H24.8972L24.8017 135.591L26.7992 135.692ZM84.4015 135.692L86.3989 135.792L86.5046 133.692H84.4015V135.692ZM83.508 153.456V155.456H85.4099L85.5055 153.556L83.508 153.456ZM25.9057 153.456L23.9082 153.355L23.8026 155.456H25.9057V153.456ZM26.2211 176H1.83469V180H26.2211V176ZM3.69514 178.734L46.161 71.0976L42.4402 69.6296L-0.0257464 177.266L3.69514 178.734ZM44.3006 72.3636H73.6799V68.3636H44.3006V72.3636ZM71.7616 70.9294L103.506 178.566L107.343 177.434L75.5982 69.7979L71.7616 70.9294ZM105.424 176H81.0378V180H105.424V176ZM82.9664 177.47L60.1567 94.4305L56.2996 95.49L79.1093 178.53L82.9664 177.47ZM58.2282 92.9602H57.3873V96.9602H58.2282V92.9602ZM55.5148 94.2575L24.3486 177.297L28.0935 178.703L59.2597 95.663L55.5148 94.2575ZM26.7992 137.692H84.4015V133.692H26.7992V137.692ZM82.404 135.591L81.5105 153.355L85.5055 153.556L86.3989 135.792L82.404 135.591ZM83.508 151.456H25.9057V155.456H83.508V151.456ZM27.9032 153.556L28.7967 135.792L24.8017 135.591L23.9082 153.355L27.9032 153.556ZM129.495 174.321L128.446 176.024L128.453 176.028L128.459 176.031L129.495 174.321ZM116.566 159.605L114.744 160.43L114.748 160.438L116.566 159.605ZM112.94 137.952L114.937 138.055L114.938 138.045L112.94 137.952ZM118.774 116.193L117.032 115.21L117.03 115.214L118.774 116.193ZM133.227 101.53L134.223 103.264L134.226 103.262L133.227 101.53ZM172.96 100.058L173.844 98.2646L173.844 98.2646L172.96 100.058ZM184.995 110.832L183.291 111.878L183.291 111.878L184.995 110.832ZM189.2 127.125V129.125H191.189L191.2 127.136L189.2 127.125ZM168.124 127.125L166.135 127.334L166.324 129.125H168.124V127.125ZM163.867 117.402L162.423 118.785L162.428 118.791L162.433 118.796L163.867 117.402ZM144.894 116.509L146.038 118.149L146.043 118.146L144.894 116.509ZM138.482 124.655L136.659 123.833L136.659 123.833L138.482 124.655ZM135.697 137.636L133.699 137.54L133.699 137.541L135.697 137.636ZM137.169 150.776L139.062 150.132L139.062 150.132L137.169 150.776ZM142.74 159.027L141.529 160.619L141.54 160.627L142.74 159.027ZM158.717 160.288L157.822 158.499L157.822 158.499L158.717 160.288ZM164.025 155.716L162.405 154.543L162.401 154.548L164.025 155.716ZM167.073 148.411V146.411H165.43L165.111 148.023L167.073 148.411ZM188.201 148.411L190.19 148.625L190.429 146.411H188.201V148.411ZM182.367 164.703L184.012 165.841L184.016 165.835L182.367 164.703ZM169.438 175.635L170.314 177.433L170.314 177.433L169.438 175.635ZM150.57 177.577C142.586 177.577 135.937 175.887 130.532 172.611L128.459 176.031C134.615 179.763 142.018 181.577 150.57 181.577V177.577ZM130.544 172.618C125.143 169.292 121.097 164.693 118.385 158.772L114.748 160.438C117.782 167.061 122.355 172.273 128.446 176.024L130.544 172.618ZM118.388 158.781C115.704 152.849 114.53 145.959 114.937 138.055L110.942 137.849C110.509 146.272 111.752 153.817 114.744 160.43L118.388 158.781ZM114.938 138.045C115.311 130.038 117.188 123.098 120.517 117.173L117.03 115.214C113.351 121.762 111.34 129.327 110.942 137.859L114.938 138.045ZM120.515 117.176C123.882 111.209 128.446 106.584 134.223 103.264L132.23 99.7958C125.814 103.483 120.743 108.634 117.032 115.21L120.515 117.176ZM134.226 103.262C140.01 99.924 146.803 98.2216 154.67 98.2216V94.2216C146.21 94.2216 138.707 96.058 132.227 99.7976L134.226 103.262ZM154.67 98.2216C161.435 98.2216 167.217 99.4556 172.075 101.852L173.844 98.2646C168.331 95.5453 161.92 94.2216 154.67 94.2216V98.2216ZM172.075 101.852C176.945 104.254 180.663 107.596 183.291 111.878L186.7 109.786C183.651 104.818 179.345 100.978 173.844 98.2646L172.075 101.852ZM183.291 111.878C185.906 116.14 187.233 121.193 187.2 127.114L191.2 127.136C191.237 120.583 189.761 114.775 186.7 109.786L183.291 111.878ZM189.2 125.125H168.124V129.125H189.2V125.125ZM170.113 126.916C169.654 122.549 168.08 118.867 165.302 116.008L162.433 118.796C164.49 120.913 165.754 123.712 166.135 127.334L170.113 126.916ZM165.312 116.019C162.481 113.063 158.677 111.67 154.144 111.67V115.67C157.81 115.67 160.489 116.766 162.423 118.785L165.312 116.019ZM154.144 111.67C150.288 111.67 146.799 112.73 143.746 114.871L146.043 118.146C148.386 116.503 151.064 115.67 154.144 115.67V111.67ZM143.75 114.868C140.735 116.971 138.389 119.998 136.659 123.833L140.306 125.477C141.8 122.164 143.728 119.76 146.038 118.149L143.75 114.868ZM136.659 123.833C134.919 127.692 133.953 132.28 133.699 137.54L137.695 137.733C137.931 132.832 138.823 128.765 140.306 125.477L136.659 123.833ZM133.699 137.541C133.446 142.859 133.945 147.505 135.275 151.419L139.062 150.132C137.94 146.828 137.457 142.714 137.695 137.731L133.699 137.541ZM135.275 151.419C136.601 155.321 138.66 158.437 141.529 160.619L143.95 157.435C141.843 155.833 140.189 153.448 139.062 150.132L135.275 151.419ZM141.54 160.627C144.443 162.805 147.871 163.865 151.727 163.865V159.865C148.645 159.865 146.081 159.033 143.94 157.427L141.54 160.627ZM151.727 163.865C154.567 163.865 157.207 163.279 159.611 162.077L157.822 158.499C156.022 159.4 154.002 159.865 151.727 159.865V163.865ZM159.611 162.077C162.017 160.874 164.032 159.131 165.649 156.884L162.401 154.548C161.145 156.295 159.621 157.6 157.822 158.499L159.611 162.077ZM165.645 156.889C167.31 154.589 168.427 151.876 169.035 148.798L165.111 148.023C164.598 150.621 163.683 152.778 162.405 154.543L165.645 156.889ZM167.073 150.411H188.201V146.411H167.073V150.411ZM186.213 148.196C185.579 154.063 183.738 159.173 180.719 163.571L184.016 165.835C187.443 160.843 189.492 155.091 190.19 148.625L186.213 148.196ZM180.723 163.565C177.706 167.926 173.669 171.35 168.563 173.837L170.314 177.433C176 174.664 180.582 170.8 184.012 165.841L180.723 163.565ZM168.563 173.837C163.488 176.308 157.509 177.577 150.57 177.577V181.577C157.998 181.577 164.597 180.217 170.314 177.433L168.563 173.837ZM210.367 176.844L209.525 178.658L209.535 178.662L209.544 178.667L210.367 176.844ZM201.222 168.803L199.506 169.829L199.512 169.839L199.518 169.849L201.222 168.803ZM198.437 155.453L200.434 155.558L200.434 155.547L198.437 155.453ZM201.432 144.206L203.153 145.226L203.158 145.217L201.432 144.206ZM208.475 136.848L209.551 138.534L209.556 138.53L208.475 136.848ZM218.408 132.591L218.906 134.528L218.915 134.526L218.924 134.523L218.408 132.591ZM229.971 130.594L230.144 132.586L230.161 132.585L230.179 132.583L229.971 130.594ZM241.323 129.227L241.613 131.206L241.623 131.205L241.632 131.203L241.323 129.227ZM247.682 127.23L246.603 125.546L246.593 125.553L246.583 125.559L247.682 127.23ZM249.89 123.341L251.886 123.463L251.89 123.402V123.341H249.89ZM249.89 123.026L247.893 122.92L247.89 122.973V123.026H249.89ZM247.157 115.3L248.505 113.822L248.505 113.822L247.157 115.3ZM228.657 115.247L229.808 116.882L229.813 116.879L228.657 115.247ZM223.611 121.869L223.449 123.863L225.019 123.991L225.511 122.494L223.611 121.869ZM203.009 120.188L201.072 119.689L200.481 121.988L202.846 122.181L203.009 120.188ZM209.789 107.469L211.267 108.816L211.273 108.809L209.789 107.469ZM222.14 99.1648L222.862 101.03L222.869 101.027L222.14 99.1648ZM252.15 97.7983L251.645 99.7335L251.649 99.7346L252.15 97.7983ZM262.871 102.686L261.707 104.312L261.716 104.318L262.871 102.686ZM270.072 111.2L268.272 112.073L268.275 112.08L270.072 111.2ZM272.226 123.551L270.229 123.449L270.229 123.451L272.226 123.551ZM269.493 178V180H271.396L271.491 178.1L269.493 178ZM248.26 178L246.263 177.897L246.155 180H248.26V178ZM248.839 166.805L250.836 166.909L250.945 164.805H248.839V166.805ZM248.208 166.805V164.805H247.031L246.46 165.834L248.208 166.805ZM242.689 173.48L243.979 175.009L243.981 175.007L242.689 173.48ZM234.648 177.947L235.287 179.843L235.297 179.839L235.306 179.836L234.648 177.947ZM240.009 162.128L240.903 163.917L240.913 163.912L240.923 163.907L240.009 162.128ZM246.211 156.767L247.859 157.9L247.859 157.9L246.211 156.767ZM248.733 149.146L250.731 149.245L250.731 149.244L248.733 149.146ZM249.154 140.58L251.152 140.678L251.343 136.771L248.064 138.903L249.154 140.58ZM246.211 141.841L246.76 143.764L246.778 143.759L246.795 143.754L246.211 141.841ZM242.111 142.787L241.746 140.821L241.746 140.821L242.111 142.787ZM237.591 143.575L237.913 145.549L237.913 145.549L237.591 143.575ZM233.492 144.206L233.209 142.226L233.206 142.227L233.492 144.206ZM226.449 146.045L225.685 144.197L225.673 144.202L226.449 146.045ZM221.667 149.462L220.127 148.185L220.124 148.189L221.667 149.462ZM219.827 154.717L221.825 154.809L221.826 154.797L221.826 154.784L219.827 154.717ZM222.823 161.707L221.619 163.304L221.627 163.311L221.636 163.317L222.823 161.707ZM223.979 177.524C219.098 177.524 214.849 176.672 211.19 175.021L209.544 178.667C213.804 180.589 218.63 181.524 223.979 181.524V177.524ZM211.209 175.03C207.626 173.366 204.884 170.945 202.927 167.756L199.518 169.849C201.905 173.737 205.26 176.678 209.525 178.658L211.209 175.03ZM202.939 167.776C201.056 164.627 200.169 160.598 200.434 155.558L196.439 155.348C196.144 160.96 197.114 165.83 199.506 169.829L202.939 167.776ZM200.434 155.547C200.634 151.299 201.573 147.89 203.153 145.226L199.712 143.186C197.718 146.549 196.66 150.637 196.439 155.359L200.434 155.547ZM203.158 145.217C204.789 142.435 206.916 140.216 209.551 138.534L207.399 135.162C204.217 137.194 201.65 139.88 199.707 143.195L203.158 145.217ZM209.556 138.53C212.305 136.763 215.416 135.425 218.906 134.528L217.91 130.654C214.042 131.649 210.531 133.149 207.393 135.166L209.556 138.53ZM218.924 134.523C222.484 133.574 226.223 132.927 230.144 132.586L229.797 128.601C225.66 128.961 221.691 129.646 217.893 130.658L218.924 134.523ZM230.179 132.583C234.886 132.091 238.701 131.632 241.613 131.206L241.033 127.248C238.199 127.663 234.445 128.115 229.763 128.605L230.179 132.583ZM241.632 131.203C244.624 130.735 247.087 130.016 248.782 128.901L246.583 125.559C245.615 126.196 243.839 126.809 241.013 127.251L241.632 131.203ZM248.762 128.914C250.702 127.67 251.745 125.772 251.886 123.463L247.893 123.219C247.825 124.343 247.396 125.038 246.603 125.546L248.762 128.914ZM251.89 123.341V123.026H247.89V123.341H251.89ZM251.887 123.131C252.086 119.357 251.046 116.141 248.505 113.822L245.809 116.777C247.262 118.103 248.044 120.037 247.893 122.92L251.887 123.131ZM248.505 113.822C246.014 111.55 242.568 110.567 238.485 110.567V114.567C241.97 114.567 244.305 115.405 245.809 116.777L248.505 113.822ZM238.485 110.567C234.166 110.567 230.451 111.526 227.501 113.615L229.813 116.879C231.908 115.395 234.745 114.567 238.485 114.567V110.567ZM227.505 113.612C224.698 115.589 222.733 118.138 221.711 121.244L225.511 122.494C226.241 120.275 227.64 118.409 229.808 116.882L227.505 113.612ZM223.774 119.876L203.172 118.194L202.846 122.181L223.449 123.863L223.774 119.876ZM204.946 120.686C206.13 116.081 208.239 112.137 211.267 108.816L208.311 106.121C204.822 109.948 202.411 114.483 201.072 119.689L204.946 120.686ZM211.273 108.809C214.303 105.454 218.149 102.855 222.862 101.03L221.417 97.2998C216.179 99.3286 211.792 102.266 208.304 106.128L211.273 108.809ZM222.869 101.027C227.606 99.172 233.08 98.2216 239.326 98.2216V94.2216C232.678 94.2216 226.694 95.2333 221.41 97.3025L222.869 101.027ZM239.326 98.2216C243.69 98.2216 247.794 98.7289 251.645 99.7335L252.655 95.8631C248.447 94.7654 244.002 94.2216 239.326 94.2216V98.2216ZM251.649 99.7346C255.5 100.731 258.844 102.263 261.707 104.312L264.035 101.06C260.732 98.6946 256.928 96.9682 252.65 95.862L251.649 99.7346ZM261.716 104.318C264.556 106.329 266.736 108.905 268.272 112.073L271.871 110.328C270.044 106.558 267.423 103.458 264.027 101.054L261.716 104.318ZM268.275 112.08C269.774 115.14 270.461 118.902 270.229 123.449L274.224 123.653C274.482 118.6 273.733 114.128 271.868 110.321L268.275 112.08ZM270.229 123.451L267.496 177.9L271.491 178.1L274.224 123.651L270.229 123.451ZM269.493 176H248.26V180H269.493V176ZM250.258 178.103L250.836 166.909L246.841 166.702L246.263 177.897L250.258 178.103ZM248.839 164.805H248.208V168.805H248.839V164.805ZM246.46 165.834C245.179 168.138 243.497 170.177 241.398 171.953L243.981 175.007C246.437 172.929 248.433 170.518 249.956 167.777L246.46 165.834ZM241.4 171.952C239.366 173.667 236.907 175.043 233.99 176.059L235.306 179.836C238.627 178.68 241.528 177.077 243.979 175.009L241.4 171.952ZM234.009 176.052C231.135 177.021 227.801 177.524 223.979 177.524V181.524C228.146 181.524 231.924 180.976 235.287 179.843L234.009 176.052ZM231.18 166.072C234.741 166.072 237.997 165.37 240.903 163.917L239.115 160.339C236.835 161.479 234.205 162.072 231.18 162.072V166.072ZM240.923 163.907C243.788 162.435 246.116 160.435 247.859 157.9L244.563 155.634C243.222 157.584 241.415 159.157 239.095 160.349L240.923 163.907ZM247.859 157.9C249.62 155.338 250.573 152.436 250.731 149.245L246.736 149.048C246.613 151.532 245.885 153.711 244.563 155.634L247.859 157.9ZM250.731 149.244L251.152 140.678L247.156 140.482L246.736 149.048L250.731 149.244ZM248.064 138.903C247.583 139.215 246.799 139.57 245.626 139.928L246.795 143.754C248.145 143.341 249.323 142.855 250.244 142.256L248.064 138.903ZM245.661 139.918C244.506 140.248 243.202 140.55 241.746 140.821L242.477 144.753C244.034 144.464 245.463 144.135 246.76 143.764L245.661 139.918ZM241.746 140.821C240.254 141.098 238.762 141.358 237.27 141.601L237.913 145.549C239.434 145.302 240.956 145.036 242.477 144.753L241.746 140.821ZM237.27 141.601C235.773 141.845 234.42 142.053 233.209 142.226L233.775 146.186C235.017 146.008 236.396 145.796 237.913 145.549L237.27 141.601ZM233.206 142.227C230.413 142.631 227.9 143.281 225.685 144.197L227.214 147.893C229.063 147.128 231.245 146.552 233.778 146.185L233.206 142.227ZM225.673 144.202C223.428 145.148 221.555 146.464 220.127 148.185L223.206 150.738C224.162 149.586 225.477 148.625 227.226 147.889L225.673 144.202ZM220.124 148.189C218.644 149.983 217.911 152.18 217.828 154.651L221.826 154.784C221.884 153.05 222.377 151.743 223.209 150.734L220.124 148.189ZM217.829 154.625C217.664 158.226 218.874 161.235 221.619 163.304L224.027 160.111C222.497 158.957 221.71 157.305 221.825 154.809L217.829 154.625ZM221.636 163.317C224.206 165.213 227.444 166.072 231.18 166.072V162.072C228.048 162.072 225.715 161.355 224.01 160.098L221.636 163.317ZM300.213 174.584L299.106 176.25L299.115 176.255L300.213 174.584ZM289.123 160.551L287.278 161.323L287.28 161.326L289.123 160.551ZM285.917 137.741L287.915 137.843L287.915 137.84L285.917 137.741ZM291.541 114.669L293.303 115.615L293.305 115.611L291.541 114.669ZM304.155 100.847L305.178 102.565L305.187 102.56L304.155 100.847ZM331.852 98.5341L330.924 100.306L330.937 100.312L330.949 100.319L331.852 98.5341ZM338.947 104.21L337.362 105.43L337.367 105.436L337.371 105.442L338.947 104.21ZM342.889 110.832L341.034 111.58L341.539 112.832H342.889V110.832ZM343.572 110.832V112.832H345.474L345.57 110.934L343.572 110.832ZM345.622 70.3636V68.3636H343.721L343.625 70.2625L345.622 70.3636ZM367.959 70.3636L369.956 70.4631L370.061 68.3636H367.959V70.3636ZM362.598 178V180H364.501L364.595 178.099L362.598 178ZM340.524 178L338.527 177.894L338.415 180H340.524V178ZM341.207 165.071L343.204 165.177L343.316 163.071H341.207V165.071ZM340.209 165.071V163.071H338.99L338.431 164.154L340.209 165.071ZM335.426 171.746L336.887 173.112L336.892 173.106L336.897 173.1L335.426 171.746ZM327.753 177.159L328.597 178.972L328.597 178.972L327.753 177.159ZM333.849 158.554L335.046 160.157L335.053 160.151L335.059 160.146L333.849 158.554ZM340.051 150.197L338.215 149.405L338.211 149.413L338.208 149.421L340.051 150.197ZM342.731 137.636L340.734 137.534L340.734 137.534L342.731 137.636ZM341.365 125.128L343.266 124.507L343.266 124.507L341.365 125.128ZM335.952 116.929L334.705 118.493L334.716 118.502L335.952 116.929ZM317.399 117.034L316.189 115.442L316.179 115.45L317.399 117.034ZM311.302 125.338L309.456 124.57L309.452 124.578L309.449 124.586L311.302 125.338ZM308.78 137.636L306.782 137.531L306.782 137.539L306.782 137.547L308.78 137.636ZM310.094 150.092L308.178 150.669L308.182 150.68L308.185 150.691L310.094 150.092ZM315.402 158.501L314.115 160.032L314.121 160.038L314.128 160.043L315.402 158.501ZM316.611 177.314C310.842 177.314 305.763 175.837 301.311 172.912L299.115 176.255C304.264 179.638 310.116 181.314 316.611 181.314V177.314ZM301.319 172.918C296.898 169.981 293.432 165.639 290.967 159.776L287.28 161.326C290 167.796 293.928 172.81 299.106 176.25L301.319 172.918ZM290.969 159.78C288.523 153.931 287.47 146.646 287.915 137.843L283.92 137.64C283.454 146.847 284.538 154.768 287.278 161.323L290.969 159.78ZM287.915 137.84C288.361 128.793 290.188 121.414 293.303 115.615L289.779 113.723C286.307 120.187 284.385 128.19 283.92 137.643L287.915 137.84ZM293.305 115.611C296.457 109.709 300.427 105.396 305.178 102.565L303.131 99.1285C297.652 102.393 293.212 107.295 289.777 113.727L293.305 115.611ZM305.187 102.56C309.996 99.6611 315.141 98.2216 320.657 98.2216V94.2216C314.402 94.2216 308.545 95.8654 303.122 99.1337L305.187 102.56ZM320.657 98.2216C324.965 98.2216 328.352 98.9583 330.924 100.306L332.78 96.7624C329.466 95.0266 325.39 94.2216 320.657 94.2216V98.2216ZM330.949 100.319C333.704 101.712 335.82 103.425 337.362 105.43L340.533 102.991C338.571 100.441 335.957 98.3693 332.755 96.7495L330.949 100.319ZM337.371 105.442C339.032 107.567 340.241 109.614 341.034 111.58L344.744 110.084C343.785 107.706 342.367 105.338 340.523 102.979L337.371 105.442ZM342.889 112.832H343.572V108.832H342.889V112.832ZM345.57 110.934L347.619 70.4648L343.625 70.2625L341.575 110.731L345.57 110.934ZM345.622 72.3636H367.959V68.3636H345.622V72.3636ZM365.961 70.2641L360.6 177.901L364.595 178.099L369.956 70.4631L365.961 70.2641ZM362.598 176H340.524V180H362.598V176ZM342.521 178.106L343.204 165.177L339.21 164.965L338.527 177.894L342.521 178.106ZM341.207 163.071H340.209V167.071H341.207V163.071ZM338.431 164.154C337.371 166.211 335.888 168.291 333.955 170.391L336.897 173.1C339.029 170.785 340.734 168.416 341.986 165.988L338.431 164.154ZM333.965 170.379C332.131 172.34 329.792 174.002 326.908 175.346L328.597 178.972C331.88 177.443 334.656 175.496 336.887 173.112L333.965 170.379ZM326.908 175.346C324.152 176.63 320.742 177.314 316.611 177.314V181.314C321.169 181.314 325.187 180.561 328.597 178.972L326.908 175.346ZM324.547 163.497C328.511 163.497 332.041 162.4 335.046 160.157L332.653 156.951C330.402 158.632 327.73 159.497 324.547 159.497V163.497ZM335.059 160.146C338.011 157.903 340.275 154.814 341.894 150.974L338.208 149.421C336.813 152.729 334.943 155.211 332.639 156.962L335.059 160.146ZM341.887 150.99C343.543 147.153 344.474 142.723 344.729 137.738L340.734 137.534C340.498 142.151 339.643 146.095 338.215 149.405L341.887 150.99ZM344.729 137.738C344.983 132.761 344.517 128.336 343.266 124.507L339.464 125.749C340.525 128.998 340.97 132.911 340.734 137.534L344.729 137.738ZM343.266 124.507C342.011 120.666 340.007 117.572 337.187 115.356L334.716 118.502C336.801 120.14 338.406 122.512 339.464 125.749L343.266 124.507ZM337.198 115.365C334.369 113.11 330.894 112.038 326.912 112.038V116.038C330.147 116.038 332.699 116.894 334.705 118.493L337.198 115.365ZM326.912 112.038C322.818 112.038 319.208 113.147 316.189 115.442L318.609 118.626C320.846 116.927 323.577 116.038 326.912 116.038V112.038ZM316.179 115.45C313.265 117.694 311.038 120.765 309.456 124.57L313.149 126.106C314.51 122.834 316.347 120.369 318.619 118.619L316.179 115.45ZM309.449 124.586C307.913 128.371 307.037 132.697 306.782 137.531L310.777 137.741C311.013 133.256 311.819 129.383 313.156 126.09L309.449 124.586ZM306.782 137.547C306.564 142.414 307.014 146.798 308.178 150.669L312.009 149.516C311.001 146.169 310.575 142.249 310.778 137.726L306.782 137.547ZM308.185 150.691C309.399 154.56 311.355 157.713 314.115 160.032L316.689 156.97C314.613 155.226 313.031 152.772 312.002 149.494L308.185 150.691ZM314.128 160.043C316.964 162.386 320.487 163.497 324.547 163.497V159.497C321.248 159.497 318.675 158.611 316.676 156.959L314.128 160.043ZM396.563 174.531L395.554 176.258L395.561 176.263L396.563 174.531ZM383.476 160.131L381.663 160.976L381.665 160.98L383.476 160.131ZM379.744 138.004L377.747 137.903L377.747 137.906L379.744 138.004ZM385.683 116.141L387.425 117.123L387.425 117.123L385.683 116.141ZM400.031 101.477L399.031 99.7457L399.026 99.7483L400.031 101.477ZM435.77 98.7969L435.06 100.667L435.073 100.671L435.77 98.7969ZM447.438 106.47L445.987 107.847L445.994 107.854L446.001 107.862L447.438 106.47ZM454.848 119.241L452.944 119.854L452.948 119.866L454.848 119.241ZM456.898 137.216L458.895 137.318L458.896 137.308L456.898 137.216ZM456.583 143.365V145.365H458.483L458.58 143.467L456.583 143.365ZM388.416 143.365L386.419 143.267L386.315 145.365H388.416V143.365ZM389.1 129.49V127.49H387.196L387.102 129.392L389.1 129.49ZM436.191 129.49V131.49H438.105L438.189 129.577L436.191 129.49ZM434.456 120.923L432.672 121.828L432.677 121.838L432.683 121.848L434.456 120.923ZM428.99 115.089L427.958 116.802L427.967 116.808L427.976 116.813L428.99 115.089ZM411.489 115.3L410.48 113.573L410.48 113.573L411.489 115.3ZM405.024 121.607L406.723 122.662L406.729 122.652L405.024 121.607ZM402.291 130.226L400.296 130.093L400.295 130.104L400.294 130.116L402.291 130.226ZM401.556 143.575L399.559 143.465L399.558 143.472L401.556 143.575ZM403.237 154.034L401.419 154.867L401.425 154.88L401.431 154.893L403.237 154.034ZM409.281 160.604L410.266 158.863L409.281 160.604ZM425.784 161.812L426.417 163.71L426.417 163.71L425.784 161.812ZM431.25 158.659L429.921 157.164L429.913 157.172L429.905 157.179L431.25 158.659ZM434.877 153.509L435.009 151.513L433.577 151.418L433.029 152.744L434.877 153.509ZM455.531 154.875L457.463 155.392L458.093 153.04L455.663 152.879L455.531 154.875ZM448.384 167.909L446.915 166.551L446.915 166.552L448.384 167.909ZM435.507 176.528L436.237 178.391L436.248 178.386L435.507 176.528ZM417.691 177.577C409.693 177.577 403.013 175.951 397.564 172.8L395.561 176.263C401.745 179.839 409.151 181.577 417.691 181.577V177.577ZM397.572 172.804C392.112 169.614 388.026 165.123 385.287 159.282L381.665 160.98C384.742 167.542 389.381 172.651 395.554 176.258L397.572 172.804ZM385.289 159.285C382.547 153.406 381.334 146.368 381.742 138.103L377.747 137.906C377.314 146.668 378.589 154.382 381.663 160.976L385.289 159.285ZM381.742 138.105C382.149 130.063 384.061 123.086 387.425 117.123L383.942 115.158C380.228 121.739 378.181 129.337 377.747 137.903L381.742 138.105ZM387.425 117.123C390.795 111.151 395.328 106.525 401.037 103.206L399.026 99.7483C392.682 103.437 387.649 108.587 383.942 115.158L387.425 117.123ZM401.032 103.209C406.753 99.9022 413.372 98.2216 420.949 98.2216V94.2216C412.759 94.2216 405.433 96.0448 399.031 99.7457L401.032 103.209ZM420.949 98.2216C426.093 98.2216 430.79 99.0447 435.06 100.667L436.48 96.9272C431.71 95.1153 426.526 94.2216 420.949 94.2216V98.2216ZM435.073 100.671C439.312 102.249 442.942 104.639 445.987 107.847L448.888 105.093C445.416 101.434 441.268 98.7085 436.468 96.9224L435.073 100.671ZM446.001 107.862C449.054 111.012 451.379 114.991 452.944 119.854L456.752 118.629C455.024 113.261 452.408 108.726 448.874 105.078L446.001 107.862ZM452.948 119.866C454.536 124.697 455.207 130.435 454.9 137.124L458.896 137.308C459.219 130.262 458.524 124.017 456.748 118.617L452.948 119.866ZM454.901 137.113L454.585 143.263L458.58 143.467L458.895 137.318L454.901 137.113ZM456.583 141.365H388.416V145.365H456.583V141.365ZM390.414 143.463L391.097 129.588L387.102 129.392L386.419 143.267L390.414 143.463ZM389.1 131.49H436.191V127.49H389.1V131.49ZM438.189 129.577C438.342 126.056 437.712 122.842 436.23 119.999L432.683 121.848C433.794 123.98 434.32 126.477 434.192 129.403L438.189 129.577ZM436.24 120.019C434.807 117.193 432.72 114.963 430.004 113.366L427.976 116.813C430.026 118.019 431.582 119.678 432.672 121.828L436.24 120.019ZM430.023 113.377C427.279 111.722 424.088 110.935 420.529 110.935V114.935C423.486 114.935 425.937 115.584 427.958 116.802L430.023 113.377ZM420.529 110.935C416.869 110.935 413.504 111.806 410.48 113.573L412.498 117.026C414.87 115.64 417.531 114.935 420.529 114.935V110.935ZM410.48 113.573C407.501 115.314 405.106 117.648 403.319 120.561L406.729 122.652C408.166 120.309 410.08 118.439 412.498 117.026L410.48 113.573ZM403.326 120.551C401.535 123.432 400.527 126.624 400.296 130.093L404.287 130.359C404.476 127.521 405.291 124.967 406.723 122.662L403.326 120.551ZM400.294 130.116L399.559 143.465L403.553 143.685L404.288 130.336L400.294 130.116ZM399.558 143.472C399.336 147.773 399.922 151.597 401.419 154.867L405.056 153.202C403.89 150.655 403.355 147.507 403.553 143.679L399.558 143.472ZM401.431 154.893C402.967 158.122 405.261 160.627 408.297 162.344L410.266 158.863C407.976 157.567 406.241 155.693 405.044 153.175L401.431 154.893ZM408.297 162.344C411.321 164.055 414.882 164.864 418.899 164.864V160.864C415.418 160.864 412.568 160.165 410.266 158.863L408.297 162.344ZM418.899 164.864C421.576 164.864 424.087 164.486 426.417 163.71L425.152 159.915C423.277 160.54 421.198 160.864 418.899 160.864V164.864ZM426.417 163.71C428.766 162.927 430.835 161.739 432.596 160.139L429.905 157.179C428.582 158.382 427.007 159.297 425.152 159.915L426.417 163.71ZM432.579 160.154C434.391 158.543 435.773 156.573 436.725 154.273L433.029 152.744C432.298 154.509 431.262 155.972 429.921 157.164L432.579 160.154ZM434.745 155.504L455.399 156.871L455.663 152.879L435.009 151.513L434.745 155.504ZM453.599 154.358C452.35 159.026 450.124 163.08 446.915 166.551L449.852 169.267C453.511 165.31 456.05 160.675 457.463 155.392L453.599 154.358ZM446.915 166.552C443.741 169.988 439.707 172.701 434.767 174.671L436.248 178.386C441.679 176.221 446.23 173.188 449.853 169.266L446.915 166.552ZM434.778 174.666C429.866 176.591 424.182 177.577 417.691 177.577V181.577C424.583 181.577 430.777 180.53 436.237 178.391L434.778 174.666ZM469.512 178L467.514 177.9L467.409 180H469.512V178ZM473.558 97.2727V95.2727H471.656L471.561 97.1726L473.558 97.2727ZM494.844 97.2727L496.842 97.3686L496.942 95.2727H494.844V97.2727ZM494.161 111.516L492.163 111.42L492.062 113.516H494.161V111.516ZM495.054 111.516V113.516H496.399L496.906 112.27L495.054 111.516ZM504.041 100.321L502.932 98.6569L502.925 98.6613L504.041 100.321ZM532.264 100.374L531.076 101.983L531.086 101.99L532.264 100.374ZM539.517 111.516L537.569 111.966L537.927 113.516H539.517V111.516ZM540.358 111.516V113.516H541.71L542.214 112.261L540.358 111.516ZM549.818 100.426L550.875 102.124L550.878 102.122L549.818 100.426ZM583.402 103.422L581.941 104.787L581.946 104.793L581.951 104.798L583.402 103.422ZM589.499 123.709L587.501 123.605L587.501 123.61L589.499 123.709ZM586.818 178V180H588.722L588.816 178.099L586.818 178ZM564.429 178L562.432 177.899L562.325 180H564.429V178ZM566.952 128.124L568.949 128.225L568.95 128.217L566.952 128.124ZM563.851 118.033L562.437 119.447L562.448 119.458L562.459 119.469L563.851 118.033ZM545.404 118.558L546.857 119.932L546.866 119.922L545.404 118.558ZM541.514 128.702L543.512 128.804L543.512 128.794L543.513 128.785L541.514 128.702ZM538.992 178V180H540.892L540.989 178.102L538.992 178ZM517.286 178L515.288 177.898L515.181 180H517.286V178ZM519.861 127.651L521.858 127.753L521.859 127.745L521.859 127.738L519.861 127.651ZM516.865 118.19L515.386 119.537L515.397 119.548L515.408 119.56L516.865 118.19ZM501.361 116.561L502.394 118.273L502.405 118.267L502.416 118.26L501.361 116.561ZM496.421 121.764L498.157 122.757L498.164 122.745L496.421 121.764ZM494.318 129.543L496.316 129.644L496.316 129.637L494.318 129.543ZM491.848 178V180H493.749L493.846 178.102L491.848 178ZM471.509 178.1L475.556 97.3729L471.561 97.1726L467.514 177.9L471.509 178.1ZM473.558 99.2727H494.844V95.2727H473.558V99.2727ZM492.846 97.1769L492.163 111.42L496.158 111.611L496.842 97.3686L492.846 97.1769ZM494.161 113.516H495.054V109.516H494.161V113.516ZM496.906 112.27C498.69 107.892 501.438 104.482 505.157 101.981L502.925 98.6613C498.516 101.626 495.272 105.679 493.202 110.761L496.906 112.27ZM505.151 101.985C508.886 99.4948 513.273 98.2216 518.389 98.2216V94.2216C512.574 94.2216 507.395 95.6813 502.932 98.6569L505.151 101.985ZM518.389 98.2216C523.542 98.2216 527.73 99.5121 531.076 101.983L533.452 98.7646C529.3 95.6991 524.238 94.2216 518.389 94.2216V98.2216ZM531.086 101.99C534.431 104.428 536.586 107.72 537.569 111.966L541.466 111.065C540.276 105.921 537.596 101.785 533.443 98.7574L531.086 101.99ZM539.517 113.516H540.358V109.516H539.517V113.516ZM542.214 112.261C543.904 108.052 546.766 104.68 550.875 102.124L548.762 98.7279C543.971 101.708 540.526 105.73 538.502 110.77L542.214 112.261ZM550.878 102.122C555.008 99.5409 559.835 98.2216 565.428 98.2216V94.2216C559.178 94.2216 553.598 95.7053 548.758 98.7301L550.878 102.122ZM565.428 98.2216C572.458 98.2216 577.889 100.451 581.941 104.787L584.864 102.056C579.945 96.7926 573.394 94.2216 565.428 94.2216V98.2216ZM581.951 104.798C585.98 109.045 587.938 115.202 587.501 123.605L591.496 123.813C591.97 114.697 589.864 107.329 584.853 102.045L581.951 104.798ZM587.501 123.61L584.821 177.901L588.816 178.099L591.496 123.807L587.501 123.61ZM586.818 176H564.429V180H586.818V176ZM566.427 178.101L568.949 128.225L564.954 128.023L562.432 177.899L566.427 178.101ZM568.95 128.217C569.175 123.375 568.084 119.35 565.243 116.597L562.459 119.469C564.173 121.13 565.149 123.832 564.954 128.031L568.95 128.217ZM565.265 116.618C562.599 113.952 559.157 112.669 555.127 112.669V116.669C558.243 116.669 560.618 117.628 562.437 119.447L565.265 116.618ZM555.127 112.669C550.597 112.669 546.794 114.135 543.941 117.194L546.866 119.922C548.849 117.796 551.528 116.669 555.127 116.669V112.669ZM543.95 117.184C541.139 120.158 539.707 124.031 539.516 128.618L543.513 128.785C543.672 124.963 544.833 122.074 546.857 119.932L543.95 117.184ZM539.517 128.599L536.994 177.898L540.989 178.102L543.512 128.804L539.517 128.599ZM538.992 176H517.286V180H538.992V176ZM519.283 178.102L521.858 127.753L517.864 127.548L515.288 177.898L519.283 178.102ZM521.859 127.738C522.051 123.353 520.955 119.623 518.323 116.821L515.408 119.56C517.12 121.383 518.021 123.959 517.863 127.563L521.859 127.738ZM518.344 116.844C515.766 114.013 512.285 112.669 508.141 112.669V116.669C511.355 116.669 513.689 117.673 515.386 119.537L518.344 116.844ZM508.141 112.669C505.296 112.669 502.668 113.396 500.306 114.862L502.416 118.26C504.118 117.204 506.01 116.669 508.141 116.669V112.669ZM500.328 114.849C497.975 116.268 496.094 118.266 494.677 120.784L498.164 122.745C499.27 120.777 500.683 119.306 502.394 118.273L500.328 114.849ZM494.684 120.772C493.241 123.298 492.473 126.209 492.321 129.449L496.316 129.637C496.444 126.92 497.078 124.646 498.157 122.756L494.684 120.772ZM492.321 129.441L489.851 177.898L493.846 178.102L496.316 129.644L492.321 129.441ZM491.848 176H469.512V180H491.848V176ZM604.451 178L602.454 177.9L602.348 180H604.451V178ZM608.498 97.2727V95.2727H606.596L606.501 97.1726L608.498 97.2727ZM630.835 97.2727L632.832 97.3716L632.936 95.2727H630.835V97.2727ZM626.84 178V180H628.744L628.838 178.099L626.84 178ZM611.914 83.5028L610.511 84.928L610.522 84.9389L610.533 84.9496L611.914 83.5028ZM608.656 75.5142L610.655 75.5823L610.655 75.5816L608.656 75.5142ZM612.492 67.5256L613.83 69.0122L613.83 69.0122L612.492 67.5256ZM629.573 67.5256L628.181 68.9617L628.187 68.967L628.192 68.9723L629.573 67.5256ZM629.048 83.5028L627.71 82.0163L627.705 82.021L627.699 82.0259L629.048 83.5028ZM606.449 178.1L610.496 97.3729L606.501 97.1726L602.454 177.9L606.449 178.1ZM608.498 99.2727H630.835V95.2727H608.498V99.2727ZM628.837 97.1739L624.843 177.901L628.838 178.099L632.832 97.3716L628.837 97.1739ZM626.84 176H604.451V180H626.84V176ZM620.376 84.8139C617.538 84.8139 615.219 83.8925 613.295 82.0561L610.533 84.9496C613.234 87.5279 616.556 88.8139 620.376 88.8139V84.8139ZM613.317 82.0777C611.422 80.2118 610.569 78.0841 610.655 75.5823L606.657 75.4461C606.532 79.1109 607.851 82.309 610.511 84.928L613.317 82.0777ZM610.655 75.5816C610.74 73.0404 611.756 70.8793 613.83 69.0122L611.154 66.039C608.324 68.5866 606.781 71.7513 606.657 75.4468L610.655 75.5816ZM613.83 69.0122C615.912 67.1385 618.325 66.2145 621.164 66.2145V62.2145C617.346 62.2145 613.978 63.4979 611.154 66.039L613.83 69.0122ZM621.164 66.2145C624.002 66.2145 626.297 67.1353 628.181 68.9617L630.965 66.0894C628.295 63.5011 624.984 62.2145 621.164 62.2145V66.2145ZM628.192 68.9723C630.104 70.7971 630.971 72.9139 630.886 75.4468L634.883 75.5816C635.008 71.8777 633.668 68.6688 630.954 66.0789L628.192 68.9723ZM630.886 75.4468C630.8 77.988 629.784 80.1491 627.71 82.0163L630.386 84.9894C633.216 82.4418 634.759 79.2771 634.883 75.5816L630.886 75.4468ZM627.699 82.0259C625.661 83.8867 623.256 84.8139 620.376 84.8139V88.8139C624.223 88.8139 627.599 87.5337 630.396 84.9798L627.699 82.0259ZM654.078 176.844L653.236 178.658L653.245 178.662L653.255 178.667L654.078 176.844ZM644.933 168.803L643.217 169.829L643.223 169.839L643.229 169.849L644.933 168.803ZM642.148 155.453L644.145 155.558L644.145 155.547L642.148 155.453ZM645.143 144.206L646.864 145.226L646.869 145.217L645.143 144.206ZM652.186 136.848L653.262 138.534L653.267 138.53L652.186 136.848ZM662.119 132.591L662.617 134.528L662.626 134.526L662.634 134.523L662.119 132.591ZM673.682 130.594L673.855 132.586L673.872 132.585L673.889 132.583L673.682 130.594ZM685.034 129.227L685.324 131.206L685.333 131.205L685.343 131.203L685.034 129.227ZM691.393 127.23L690.314 125.546L690.304 125.553L690.294 125.559L691.393 127.23ZM693.601 123.341L695.597 123.463L695.601 123.402V123.341H693.601ZM693.601 123.026L691.603 122.92L691.601 122.973V123.026H693.601ZM690.868 115.3L692.216 113.822L692.216 113.822L690.868 115.3ZM672.368 115.247L673.519 116.882L673.524 116.879L672.368 115.247ZM667.322 121.869L667.16 123.863L668.73 123.991L669.222 122.494L667.322 121.869ZM646.72 120.188L644.783 119.689L644.192 121.988L646.557 122.181L646.72 120.188ZM653.5 107.469L654.978 108.816L654.984 108.809L653.5 107.469ZM665.851 99.1648L666.573 101.03L666.58 101.027L665.851 99.1648ZM695.861 97.7983L695.356 99.7335L695.36 99.7346L695.861 97.7983ZM706.582 102.686L705.418 104.312L705.427 104.318L706.582 102.686ZM713.782 111.2L711.983 112.073L711.986 112.08L713.782 111.2ZM715.937 123.551L713.94 123.449L713.94 123.451L715.937 123.551ZM713.204 178V180H715.107L715.202 178.1L713.204 178ZM691.971 178L689.974 177.897L689.865 180H691.971V178ZM692.55 166.805L694.547 166.909L694.655 164.805H692.55V166.805ZM691.919 166.805V164.805H690.742L690.171 165.834L691.919 166.805ZM686.4 173.48L687.69 175.009L687.692 175.007L686.4 173.48ZM678.359 177.947L678.998 179.843L679.008 179.839L679.017 179.836L678.359 177.947ZM683.72 162.128L684.614 163.917L684.624 163.912L684.634 163.907L683.72 162.128ZM689.922 156.767L691.57 157.9L691.57 157.9L689.922 156.767ZM692.444 149.146L694.442 149.245L694.442 149.244L692.444 149.146ZM692.865 140.58L694.862 140.678L695.054 136.771L691.775 138.903L692.865 140.58ZM689.922 141.841L690.471 143.764L690.489 143.759L690.506 143.754L689.922 141.841ZM685.822 142.787L685.456 140.821L685.456 140.821L685.822 142.787ZM681.302 143.575L681.624 145.549L681.624 145.549L681.302 143.575ZM677.203 144.206L676.92 142.226L676.916 142.227L677.203 144.206ZM670.16 146.045L669.396 144.197L669.384 144.202L670.16 146.045ZM665.378 149.462L663.838 148.185L663.835 148.189L665.378 149.462ZM663.538 154.717L665.536 154.809L665.537 154.797L665.537 154.784L663.538 154.717ZM666.534 161.707L665.33 163.304L665.338 163.311L665.347 163.317L666.534 161.707ZM667.69 177.524C662.808 177.524 658.56 176.672 654.901 175.021L653.255 178.667C657.515 180.589 662.341 181.524 667.69 181.524V177.524ZM654.92 175.03C651.337 173.366 648.595 170.945 646.638 167.756L643.229 169.849C645.616 173.737 648.971 176.678 653.236 178.658L654.92 175.03ZM646.65 167.776C644.766 164.627 643.88 160.598 644.145 155.558L640.15 155.348C639.855 160.96 640.825 165.83 643.217 169.829L646.65 167.776ZM644.145 155.547C644.344 151.299 645.284 147.89 646.864 145.226L643.423 143.186C641.429 146.549 640.371 150.637 640.15 155.359L644.145 155.547ZM646.869 145.217C648.5 142.435 650.627 140.216 653.262 138.534L651.11 135.162C647.928 137.194 645.361 139.88 643.418 143.195L646.869 145.217ZM653.267 138.53C656.016 136.763 659.127 135.425 662.617 134.528L661.621 130.654C657.753 131.649 654.242 133.149 651.104 135.166L653.267 138.53ZM662.634 134.523C666.195 133.574 669.934 132.927 673.855 132.586L673.508 128.601C669.371 128.961 665.402 129.646 661.604 130.658L662.634 134.523ZM673.889 132.583C678.597 132.091 682.412 131.632 685.324 131.206L684.744 127.248C681.91 127.663 678.156 128.115 673.474 128.605L673.889 132.583ZM685.343 131.203C688.334 130.735 690.798 130.016 692.493 128.901L690.294 125.559C689.326 126.196 687.55 126.809 684.724 127.251L685.343 131.203ZM692.473 128.914C694.413 127.67 695.456 125.772 695.597 123.463L691.604 123.219C691.536 124.343 691.107 125.038 690.314 125.546L692.473 128.914ZM695.601 123.341V123.026H691.601V123.341H695.601ZM695.598 123.131C695.797 119.357 694.757 116.141 692.216 113.822L689.52 116.777C690.973 118.103 691.755 120.037 691.603 122.92L695.598 123.131ZM692.216 113.822C689.725 111.55 686.279 110.567 682.196 110.567V114.567C685.681 114.567 688.016 115.405 689.52 116.777L692.216 113.822ZM682.196 110.567C677.877 110.567 674.162 111.526 671.212 113.615L673.524 116.879C675.619 115.395 678.456 114.567 682.196 114.567V110.567ZM671.216 113.612C668.409 115.589 666.444 118.138 665.422 121.244L669.222 122.494C669.952 120.275 671.351 118.409 673.519 116.882L671.216 113.612ZM667.485 119.876L646.883 118.194L646.557 122.181L667.16 123.863L667.485 119.876ZM648.657 120.686C649.841 116.081 651.95 112.137 654.978 108.816L652.022 106.121C648.533 109.948 646.122 114.483 644.783 119.689L648.657 120.686ZM654.984 108.809C658.013 105.454 661.86 102.855 666.573 101.03L665.128 97.2998C659.89 99.3286 655.503 102.266 652.015 106.128L654.984 108.809ZM666.58 101.027C671.317 99.172 676.791 98.2216 683.037 98.2216V94.2216C676.388 94.2216 670.405 95.2333 665.121 97.3025L666.58 101.027ZM683.037 98.2216C687.401 98.2216 691.505 98.7289 695.356 99.7335L696.365 95.8631C692.158 94.7654 687.713 94.2216 683.037 94.2216V98.2216ZM695.36 99.7346C699.211 100.731 702.555 102.263 705.418 104.312L707.746 101.06C704.443 98.6946 700.639 96.9682 696.361 95.862L695.36 99.7346ZM705.427 104.318C708.267 106.329 710.447 108.905 711.983 112.073L715.582 110.328C713.755 106.558 711.134 103.458 707.738 101.054L705.427 104.318ZM711.986 112.08C713.485 115.14 714.172 118.902 713.94 123.449L717.935 123.653C718.193 118.6 717.443 114.128 715.579 110.321L711.986 112.08ZM713.94 123.451L711.207 177.9L715.202 178.1L717.935 123.651L713.94 123.451ZM713.204 176H691.971V180H713.204V176ZM693.969 178.103L694.547 166.909L690.552 166.702L689.974 177.897L693.969 178.103ZM692.55 164.805H691.919V168.805H692.55V164.805ZM690.171 165.834C688.89 168.138 687.208 170.177 685.109 171.953L687.692 175.007C690.148 172.929 692.144 170.518 693.667 167.777L690.171 165.834ZM685.111 171.952C683.077 173.667 680.618 175.043 677.701 176.059L679.017 179.836C682.338 178.68 685.239 177.077 687.69 175.009L685.111 171.952ZM677.72 176.052C674.846 177.021 671.512 177.524 667.69 177.524V181.524C671.857 181.524 675.635 180.976 678.998 179.843L677.72 176.052ZM674.89 166.072C678.452 166.072 681.708 165.37 684.614 163.917L682.826 160.339C680.546 161.479 677.916 162.072 674.89 162.072V166.072ZM684.634 163.907C687.499 162.435 689.827 160.435 691.57 157.9L688.274 155.634C686.933 157.584 685.126 159.157 682.806 160.349L684.634 163.907ZM691.57 157.9C693.331 155.338 694.284 152.436 694.442 149.245L690.447 149.048C690.324 151.532 689.596 153.711 688.274 155.634L691.57 157.9ZM694.442 149.244L694.862 140.678L690.867 140.482L690.447 149.048L694.442 149.244ZM691.775 138.903C691.294 139.215 690.51 139.57 689.337 139.928L690.506 143.754C691.856 143.341 693.034 142.855 693.955 142.256L691.775 138.903ZM689.372 139.918C688.217 140.248 686.913 140.55 685.456 140.821L686.188 144.753C687.745 144.464 689.174 144.135 690.471 143.764L689.372 139.918ZM685.456 140.821C683.965 141.098 682.473 141.358 680.981 141.601L681.624 145.549C683.145 145.302 684.667 145.036 686.188 144.753L685.456 140.821ZM680.981 141.601C679.484 141.845 678.131 142.053 676.92 142.226L677.486 146.186C678.728 146.008 680.107 145.796 681.624 145.549L680.981 141.601ZM676.916 142.227C674.124 142.631 671.611 143.281 669.396 144.197L670.925 147.893C672.774 147.128 674.956 146.552 677.489 146.185L676.916 142.227ZM669.384 144.202C667.139 145.148 665.265 146.464 663.838 148.185L666.917 150.738C667.872 149.586 669.188 148.625 670.936 147.889L669.384 144.202ZM663.835 148.189C662.355 149.983 661.622 152.18 661.539 154.651L665.537 154.784C665.595 153.05 666.088 151.743 666.92 150.734L663.835 148.189ZM661.54 154.625C661.375 158.226 662.585 161.235 665.33 163.304L667.738 160.111C666.208 158.957 665.421 157.305 665.536 154.809L661.54 154.625ZM665.347 163.317C667.917 165.213 671.155 166.072 674.89 166.072V162.072C671.759 162.072 669.426 161.355 667.721 160.098L665.347 163.317Z" fill="black"/>
</svg>
